<?xml version="1.0" standalone="no"?>
<!DOCTYPE svg PUBLIC "-//W3C//DTD SVG 20010904//EN"
 "http://www.w3.org/TR/2001/REC-SVG-20010904/DTD/svg10.dtd">
<svg version="1.0" xmlns="http://www.w3.org/2000/svg"
 width="260.000000pt" height="260.000000pt" viewBox="0 0 260.000000 260.000000"
 preserveAspectRatio="xMidYMid meet">
<metadata>
Created by potrace 1.11, written by Peter Selinger 2001-2013
</metadata>
<g transform="translate(0.000000,260.000000) scale(0.100000,-0.100000)"
fill="#000000" stroke="none">
<path d="M1131 2580 c-556 -78 -987 -483 -1107 -1041 -26 -118 -26 -380 0
-498 59 -273 167 -474 360 -667 190 -189 386 -297 646 -355 121 -27 419 -27
540 0 501 111 881 486 998 985 22 96 26 134 26 281 0 128 -4 191 -18 254 -59
273 -167 474 -360 667 -190 189 -384 296 -646 355 -99 23 -340 33 -439 19z
m369 -560 c11 -11 20 -28 20 -37 0 -16 -84 -515 -185 -1098 -19 -110 -37 -222
-41 -249 -10 -74 -28 -86 -129 -86 -72 0 -88 3 -105 20 -11 11 -20 26 -20 33
0 11 96 576 185 1092 19 110 37 222 41 249 11 79 35 96 134 96 67 0 83 -3 100
-20z m-554 -352 c93 -89 93 -89 -66 -245 l-131 -127 131 -131 c96 -96 130
-137 130 -155 0 -33 -115 -150 -148 -150 -16 0 -86 61 -248 217 l-224 217 22
21 c13 12 114 110 224 218 139 136 208 197 224 197 13 0 47 -24 86 -62z m999
-155 l225 -217 -27 -29 c-16 -16 -117 -114 -225 -218 -131 -126 -204 -189
-218 -189 -33 0 -150 116 -150 149 0 20 31 56 130 156 l130 130 -130 130
c-100 100 -130 136 -130 156 0 32 117 149 150 149 14 0 96 -73 245 -217z"/>
</g>
</svg>
